<?xml version="1.0" encoding="utf-8"?>
<!-- Generator: Adobe Illustrator 21.0.0, SVG Export Plug-In . SVG Version: 6.00 Build 0)  -->
<svg version="1.1"
	 id="svg2" xmlns:cc="http://creativecommons.org/ns#" xmlns:dc="http://purl.org/dc/elements/1.1/" xmlns:rdf="http://www.w3.org/1999/02/22-rdf-syntax-ns#" xmlns:svg="http://www.w3.org/2000/svg"
	 xmlns="http://www.w3.org/2000/svg" xmlns:xlink="http://www.w3.org/1999/xlink" x="0px" y="0px" viewBox="0 0 142.8 164.5"
	 style="enable-background:new 0 0 142.8 164.5;" xml:space="preserve">
<style type="text/css">
	.st0{fill:#EE2630;}
	.st1{fill:#F9A612;}
</style>
<g id="g10" transform="matrix(1.3333333,0,0,-1.3333333,0,228.54667)">
	<g id="g12" transform="scale(0.1)">
		<path id="path14" class="st0" d="M536.1,1666.7l497.1-861.7H39L536.1,1666.7z"/>
		<path id="path16" class="st1" d="M462,1068.5h-33.8c-4.7,0-9.2-3.8-10.1-8.5l-28.4-155.4c-0.9-4.7,2.3-8.6,7-8.6h33.8
			c4.7,0,9.2,3.8,10.1,8.6l28.4,155.4C469.9,1064.6,466.8,1068.4,462,1068.5"/>
		<path id="path18" class="st1" d="M482.3,1132.6l5.3,29.4c0.8,4.7-2.3,8.5-7,8.5l-33.8,0c-4.7,0-9.2-3.8-10.1-8.5l-5.4-29.4
			c-0.8-4.7,2.3-8.5,7-8.5h33.8C476.9,1124.1,481.4,1127.9,482.3,1132.6"/>
		<path id="path20" class="st1" d="M847.5,904.1c2.3,5.8,4,21.5,4,21.5c0.4,2.4,0.9,8.5-4.8,10.2c-5.7,1.7-19.2-0.4-19.2,8.5
			c0,3.1,10.6,55.1,11.7,71.8c1.1,16.7,0.1,38.6-27.2,49.4c-9.9,3.9-98.7,2.9-98.7,2.9c-5.2,0.1-10-3.3-10.7-7.5l-4-18.7
			c-0.6-4.2,3.1-7.7,8.4-7.8c0,0,38,0,61.3,0c21.8,0,29.8-4.2,30.2-7.9c0.4-3.8,1-25.1-8.2-24.7c-8.1,0.3-118.5,22.1-118.5-50.7
			c0-12.7-21.4-17.4-27-8.8c-5.6,8.6-34.3,37.3-34.6,42.4c-0.3,5.1,47.5,29.8,57.7,70.3c1,3.7,1.6,13.5-5.9,13.5
			c-5.4,0-25.1,0-29.2,0c-3.9,0-9-0.9-13.5-10.2c-19.7-45.6-71.2-56-67.5-39.1c1.2,5.5,59.9,330.1,59.9,330.1c0.8,4.7-2.3,8.5-7,8.5
			h-33.8c-4.7,0-9.2-3.8-10.1-8.5l-81-444.7c-0.9-4.7,2.3-8.6,7-8.6h33.8c4.7,0,9.2,3.8,10.1,8.6l9.5,50.2l0,0
			c2.8,7.2,7,10.4,16.2,10.4c33.4,0,50.4-71.6,84.5-72.2c20.5-0.4,45,15.2,49.7,15.3c9.8,0.3,15.3-15.3,48.2-15.3
			c29.2,0,50.4,10.6,57.2,10.6c6,0,18.7-6.5,25.1-8.1C836.5,891.3,845.2,898.3,847.5,904.1L847.5,904.1z M749.9,928.3
			c-25.2-1.2-38.9,10.9-38.9,22.7c0,16.2,24.9,21.4,45.1,20.7c20.2-0.7,34.1-5.1,33.6-20.9C789.3,938.9,771.2,929.3,749.9,928.3"/>
		<path id="path22" class="st1" d="M219.8,892.4c2.5,1.2,4.1,2.7,5.4,3.2c1.1,0.4,3.2,0.3,6-0.3l0.4-0.1
			c23.4-6.6,108.2-29.3,129.1,69.4c0,0,57.6,315.7,57.7,316.4c0.5,3.7,7.1,43.8,62.8,25c18.8-6.3,20.4,3.1,20.9,4.7l8.6,36.9
			c0.3,10.5-8.1,8.1-24.2,11.2c-12.3,2.3-16-4.3-18.8-5.6c-2.8-1.3-12.7,1.1-27.3,1.8c-8.5,0.4-59.5-6-69.8-55.9l-56.1-303.2
			c-2.5-9.1-1.7-94.8-100.1-46.5c-16.7,8.2-23.1,3.9-24.6-4.8c-1.1-6.1-5.7-37.2-6.5-43.6c-0.3-2.6,1.6-6.7,6.5-7.4
			c5.2-0.8,13.4-2,17.5-2.7c5.8-0.9,9.4-0.2,12.1,1.2L219.8,892.4"/>
		<path id="path24" class="st0" d="M958,1115.3h10.1c4.8,0,8.1,0.7,9.9,2.2c1.8,1.4,2.6,3.4,2.6,5.7c0,1.5-0.4,2.9-1.3,4.1
			c-0.9,1.2-2,2.1-3.5,2.7c-1.5,0.6-4.3,0.9-8.3,0.9H958V1115.3z M949.7,1086.3v51.6h17.7c6.1,0,10.4-0.5,13.1-1.4
			c2.7-0.9,4.9-2.6,6.5-5c1.6-2.4,2.4-4.9,2.4-7.6c0-3.8-1.3-7-4-9.8c-2.7-2.8-6.3-4.4-10.7-4.7c1.8-0.8,3.3-1.7,4.4-2.7
			c2.1-2,4.6-5.4,7.6-10.2l6.3-10.1h-10.2l-4.6,8.1c-3.6,6.4-6.5,10.4-8.7,12c-1.5,1.2-3.7,1.8-6.7,1.8H958v-21.9H949.7z
			 M970.7,1152.8c-6.7,0-13.3-1.7-19.7-5.2c-6.4-3.4-11.3-8.4-14.9-14.8c-3.6-6.4-5.4-13.1-5.4-20c0-6.9,1.8-13.5,5.3-19.9
			c3.5-6.3,8.5-11.3,14.8-14.8c6.3-3.5,13-5.3,19.9-5.3c6.9,0,13.5,1.8,19.9,5.3c6.3,3.5,11.3,8.5,14.8,14.8
			c3.5,6.3,5.3,12.9,5.3,19.9c0,6.9-1.8,13.6-5.4,20c-3.6,6.4-8.6,11.4-14.9,14.8C983.9,1151,977.4,1152.8,970.7,1152.8
			L970.7,1152.8z M970.7,1160.7c8,0,15.9-2.1,23.6-6.2c7.7-4.1,13.6-10,17.9-17.7c4.3-7.7,6.4-15.7,6.4-24c0-8.3-2.1-16.2-6.3-23.8
			c-4.2-7.6-10.1-13.5-17.7-17.7c-7.6-4.2-15.6-6.3-23.8-6.3c-8.3,0-16.3,2.1-23.8,6.3c-7.6,4.2-13.5,10.1-17.8,17.7
			c-4.2,7.6-6.3,15.6-6.3,23.8c0,8.3,2.2,16.4,6.4,24c4.3,7.7,10.3,13.6,17.9,17.7C954.8,1158.6,962.6,1160.7,970.7,1160.7"/>
		<path id="path26" class="st0" d="M78,527.2H38.4V620h36.6c19.4,0,26.5-7.8,26.5-20.3v-9.5c0-6.7-2.9-11.4-10.3-14.6
			c7.7-1.8,13.6-8.5,13.6-17.2v-9C104.9,536.2,96.5,527.2,78,527.2 M80.7,596.5c0,4.1-2.5,6.6-8.4,6.6h-13v-21.2h13
			c5.5,0,8.4,2.8,8.4,6.5V596.5z M84,557.8c0,5.2-3.2,7.8-8.8,7.8H59.3V544h13c6.5,0,11.7,1.4,11.7,8.1V557.8"/>
		<path id="path28" class="st0" d="M187.4,620v-65.8c0-14.1-8.8-28.4-35-28.4c-26.2,0-35,14.3-35,28.4V620h20.9v-63.8
			c0-7.5,3.6-11.8,14.1-11.8c10.4,0,14.1,4.3,14.1,11.8V620H187.4"/>
		<path id="path30" class="st0" d="M205.5,620h20.9v-92.8h-20.9V620"/>
		<path id="path32" class="st0" d="M245.2,527.2V620h20.9v-74.3h36.8v-18.5H245.2"/>
		<path id="path34" class="st0" d="M350.7,527.2h-36V620h36c22.9,0,31.3-11.6,31.3-24.1v-44.6C382.1,538.9,373.6,527.2,350.7,527.2
			 M361.2,590.1c0,7.3-2.5,11.3-12.9,11.3h-12.6v-55.8h12.6c10.4,0,12.9,4.1,12.9,11.3V590.1"/>
		<path id="path36" class="st0" d="M398.8,620h20.9v-92.8h-20.9V620"/>
		<path id="path38" class="st0" d="M458.4,588.2v-61h-19.9V620h25.6l30.5-64v64h19.9v-92.8h-25.8L458.4,588.2"/>
		<path id="path40" class="st0" d="M564.6,525.8c-22.6,0-34,11.6-34,28.4v38.7c0,17.2,11.4,28.4,34,28.4c10.8,0,21.7-1.4,29.7-2.9
			l-2.5-18.3c-8.1,1.2-20.5,2.2-27.2,2.2c-10.4,0-13.1-5.4-13.1-12.7v-31.9c0-7.3,2.7-13.2,13.1-13.2c4.2,0,7,0.1,12.4,0.8v28.4
			h19.6v-43.6C586.5,527.3,575.4,525.8,564.6,525.8"/>
		<path id="path42" class="st0" d="M681.6,601.4v-74.3h-20.9v74.3h-24.9V620h70.8v-18.5H681.6"/>
		<path id="path44" class="st0" d="M750.5,556h-12.3v-28.8h-20.9V620h38.6c22.6,0,30.9-8.9,30.9-26.3v-11.5
			c0-11.6-4.2-19.4-13.5-23.3l22.4-31.7h-24.8L750.5,556z M765.9,591.7c0,7-2.7,9.8-11.2,9.8h-16.6v-27.3h16.6
			c8.9,0,11.2,3.2,11.2,10.2V591.7"/>
		<path id="path46" class="st0" d="M876.2,620v-65.8c0-14.1-8.8-28.4-35-28.4c-26.2,0-35,14.3-35,28.4V620h20.9v-63.8
			c0-7.5,3.6-11.8,14.1-11.8c10.4,0,14.1,4.3,14.1,11.8V620H876.2"/>
		<path id="path48" class="st0" d="M920.8,525.8c-10.7,0-22,2.4-30,6l3.5,16.2c8.5-2.7,17.1-4.5,26.7-4.5c10.7,0,12.8,2.1,12.8,9.9
			c0,8.4-0.4,9.4-15.6,12.7c-22.4,4.9-25.8,9.3-25.8,29.4c0,18.5,6.6,25.9,32.1,25.9c8.1,0,17.8-0.8,28.1-3l-2.1-17.6
			c-10.6,1.8-17.4,2.6-25.8,2.6c-9.3,0-11.4-1.7-11.4-8.5c0-8.9,0.4-9.1,15.1-12.5c25.1-6,26.4-10.9,26.4-29.1
			C954.8,534.8,948.8,525.8,920.8,525.8"/>
		<path id="path50" class="st0" d="M1007.9,601.4v-74.3h-20.9v74.3H962V620h70.8v-18.5H1007.9"/>
	</g>
</g>
</svg>
